<svg xmlns="http://www.w3.org/2000/svg" width="96" height="96" viewBox="0 0 96 96">
    <g data-name="그룹 4462">
        <path data-name="사각형 2666" style="fill:none" d="M0 0h96v96H0z"/>
        <g data-name="그룹 4461">
            <path data-name="다각형 2 - 윤곽선" d="M53 16.177a1.908 1.908 0 0 0-1.738 1.01L13.75 83.01A2 2 0 0 0 15.488 86h75.024a2 2 0 0 0 1.738-2.99L54.738 17.187A1.908 1.908 0 0 0 53 16.177m0-7a8.914 8.914 0 0 1 7.819 4.544l37.512 65.823A9 9 0 0 1 90.512 93H15.488a9 9 0 0 1-7.819-13.456l37.512-65.823A8.914 8.914 0 0 1 53 9.177z" transform="translate(-5 -3.458)" style="fill:#fbbe43"/>
            <path d="M2.88-50.2h-7.741l.683 29.087h6.432zm-8.254 37.228a4.427 4.427 0 0 0 4.44 4.44 4.453 4.453 0 0 0 4.383-4.44 4.46 4.46 0 0 0-4.383-4.383 4.434 4.434 0 0 0-4.44 4.383z" transform="translate(49.293 83.796)" style="fill:#fbbe43"/>
        </g>
    </g>
</svg>
